<svg xmlns="http://www.w3.org/2000/svg">
  <symbol id="advantage" viewBox="0 0 24 24">
    <path
      d="M21.69 6.58H20.2c.25-1.2-.4-1.65-1.13-1.98-.3-.14-.58-.27-.76-.5-.24-.28-.26-.55-.29-.9-.03-.52-.09-1.24-1.14-1.66-1.65-.67-4.04 2.34-4.52 2.98a2.15 2.15 0 0 0-.77 0C11.13 3.9 8.73.87 7.08 1.55c-1.05.42-1.1 1.14-1.15 1.66-.02.35-.04.62-.28.9-.18.23-.46.36-.76.5-.72.33-1.38.78-1.13 1.98H2.3a.5.5 0 0 0-.5.5v4.7c0 .28.23.5.5.5h.74v9.78c0 .28.22.5.5.5h16.9a.5.5 0 0 0 .5-.5v-9.78h.74a.5.5 0 0 0 .5-.5v-4.7a.5.5 0 0 0-.5-.5Zm-5.17-4.12c.47.2.48.35.52.82.03.39.07.93.5 1.46.34.4.77.6 1.12.77.55.25.77.35.53 1.07h-5.53c.1-.18.14-.38.14-.59 0-.4-.19-.77-.5-1.04 1-1.26 2.58-2.75 3.22-2.49ZM5.3 5.51c.35-.16.78-.37 1.11-.77.44-.53.48-1.07.51-1.46.04-.47.05-.62.52-.82.65-.26 2.24 1.24 3.23 2.5v.01c-.3.27-.48.63-.48 1.02 0 .21.05.4.14.59H4.78c-.24-.72-.03-.82.53-1.07Zm-2.5 2.07h1.71a431.71 431.71 0 0 0 6.34 0H11v3.7H2.81v-3.7Zm1.24 4.7H11v9.28H4.05v-9.28Zm15.9 9.28H13v-9.28h6.95v9.28Zm1.24-10.28H13v-3.7h.1a431.28 431.28 0 0 0 6.35 0h1.74v3.7Z" />
  </symbol>
  <symbol id="compensation-ceiling" viewBox="0 0 24 24">
    <path
      d="M20 5H4C2.8 5 1.8 6 1.8 7.4v9.2C1.7 18 2.7 19 4 19h15.8c1.4 0 2.4-1 2.4-2.4V7.4C22.3 6 21.3 5 20 5ZM4 6h16c.7 0 1.3.6 1.3 1.4v1.1H2.7V7.4C2.7 6.6 3.3 6 4 6Zm16 12H4c-.7 0-1.3-.6-1.3-1.4V11h18.6v5.6c0 .8-.6 1.4-1.4 1.4Z" />
    <rect width="5.5" height="2.1" x="14.5" y="14.9" rx=".9" ry=".9" />
  </symbol>
  <symbol id="contribution-fee" viewBox="0 0 24 24">
    <path
      d="M2.9 6.79c-.65 1.4 1.36 3.41 4.22 5.17-2.87.48-5.04 1.43-5.04 2.82v3.03c0 2.09 4.88 3.18 9.7 3.18s9.69-1.1 9.69-3.18v-3.03c0-.38-.17-.72-.45-1.03l.77-1.7c.42-.91-.2-2.07-1.81-3.45a24.97 24.97 0 0 0-5.7-3.46 25 25 0 0 0-6.34-2.01c-2.1-.31-3.38 0-3.8.9L2.9 6.8m2.08 2.16-.42-.43-.13-.15.75-1.63.13.13c.13.14.28.27.43.41l-.76 1.67Zm1.57 1.28-.68-.5L6.64 8c.22.17.44.34.68.5l-.78 1.72Zm-3.33 4.55c0-.56 1.93-1.53 5.52-1.9.55.28 1.1.56 1.67.82 2.76 1.25 5.71 2.12 7.74 2.12.37 0 .69-.04.99-.1-1.37.57-3.86 1.11-7.36 1.11-5.54 0-8.56-1.35-8.56-2.05Zm4.28-3.91.79-1.73c.44.28.92.55 1.41.82l-.79 1.73a25.4 25.4 0 0 1-1.4-.82Zm2.42 1.34.26-.57.53-1.17c.31.16.62.32.95.47.32.15.65.29.98.42l-.11.25-.51 1.12-.17.36a32.5 32.5 0 0 1-.81-.35l-.16-.07c-.34-.15-.65-.3-.96-.46Zm2.99 1.3.33-.75.45-.98c.54.2 1.07.37 1.6.53l-.27.59-.52 1.14c-.5-.15-1.03-.33-1.6-.54Zm2.7.82.58-1.27.2-.44c.28.07.55.13.83.18l-.2.41-.58 1.3c-.26-.05-.54-.1-.83-.18Zm2 .34.53-1.18.23-.5.6.05-.29.63-.46 1.02c-.19 0-.39 0-.61-.02ZM4.87 18.92a7.6 7.6 0 0 1-.56-.23v-1.81l.56.2v1.84Zm1.96.51L6 19.25v-1.87l.83.17v1.88Zm2.75.35c-.58-.04-1.12-.1-1.62-.16v-1.9c.53.07 1.07.12 1.62.16v1.9Zm3.26.06a32.41 32.41 0 0 1-2.13 0v-1.9a31.86 31.86 0 0 0 2.13 0v1.9Zm2.8-.23c-.52.07-1.07.13-1.67.17v-1.9c.57-.04 1.13-.1 1.67-.16v1.89Zm1.96-.37-.83.18v-1.88l.83-.17v1.87Zm1.7-.57-.57.23v-1.84l.56-.2v1.8Zm1.46-7.09c-.29.64-3.6.62-8.64-1.67a23.86 23.86 0 0 1-5.43-3.28C5.27 5.43 5.08 4.71 5.17 4.5c.07-.15.44-.36 1.34-.36.34 0 .76.03 1.26.1 1.73.26 3.87.95 6.05 1.93 2.17.99 4.1 2.16 5.42 3.29 1.42 1.2 1.62 1.92 1.52 2.12Z" />
  </symbol>
  <symbol id="edit" viewBox="0 0 24 24">
    <path
      d="m18.56 2.31-.88.88-1.98 1.98-11.6 11.6h-.02a21.7 21.7 0 0 1-1.23 3.72l-.51 1.2 1.18-.55c.02 0 1.93-.9 3.72-1.22v-.03l12.3-12.3.56-.56 1.59-1.6-3.13-3.12ZM4.93 17.6l1.48 1.48c-.82.2-1.6.46-2.2.69.25-.64.53-1.45.72-2.17Zm2.3.89L5.5 16.77l10.9-10.9.86.86.85.86-10.9 10.9ZM19.39 6.32l-.56.56-.86-.85-.85-.86.56-.56.85.86.86.85Z" />
  </symbol>
  <symbol id="formula" viewBox="0 0 24 24">
    <path
      d="M17.1 22.2H6.9c-.8 0-1.5-.6-1.5-1.5V3.3c0-.9.7-1.5 1.5-1.5h10.2c.8 0 1.5.6 1.5 1.5v17.4c0 .9-.7 1.5-1.5 1.5ZM6.9 2.8c-.3 0-.5.2-.5.5v17.4c0 .3.2.5.5.5h10.2c.3 0 .5-.2.5-.5V3.3c0-.3-.2-.5-.5-.5H6.9Z" />
    <path
      d="M13.8 4.7c0 .3-.3.6-.7.6h-2.2c-.4 0-.7-.3-.7-.6s.3-.7.7-.7h2.2c.4 0 .7.3.7.7ZM16.4 8.8c0 .4-.3.7-.7.7H8.3c-.4 0-.7-.3-.7-.7s.3-.7.7-.7h7.4c.4 0 .7.3.7.7ZM16.4 11.2c0 .4-.3.7-.7.7H8.3c-.4 0-.7-.3-.7-.7s.3-.7.7-.7h7.4c.4 0 .7.3.7.7ZM12 15c0 .5-.3.8-.7.8h-3c-.4 0-.7-.3-.7-.7s.3-.7.7-.7h3c.4 0 .7.3.7.7ZM16.4 17.3c0 .1-.2.3-.4.3h-3.6c-.2 0-.4-.2-.4-.3s.2-.4.4-.4H16c.2 0 .4.2.4.4Z" />
    <rect width="5.8" height="1.8" x="10.6" y="17.9" rx=".5" ry=".5" />
  </symbol>
  <symbol id="reduction" viewBox="0 0 24 24">
    <path
      d="M21.04 12.33a.74.74 0 0 0-1.05-.07l-8.4 7.32a.75.75 0 0 0 .98 1.13l8.4-7.32a.74.74 0 0 0 .26-.51.74.74 0 0 0-.19-.55ZM13.8 16.08A2.05 2.05 0 0 0 15.88 14a2.07 2.07 0 1 0-2.06 2.06ZM13.25 14a.56.56 0 0 1 .57-.56.56.56 0 0 1 .56.56c0 .16-.06.3-.16.4a.58.58 0 0 1-.8 0 .56.56 0 0 1-.17-.4ZM18.75 16.91a2.05 2.05 0 0 0-1.46 3.5 2.05 2.05 0 0 0 2.92 0 2.05 2.05 0 0 0-1.46-3.5Zm.57 2.05c0 .15-.06.3-.17.4-.21.2-.59.2-.8 0-.1-.1-.16-.25-.16-.4a.56.56 0 1 1 1.13 0ZM10.57 5.11a.75.75 0 0 0-.75.75v3.1L4.05 3.2A.75.75 0 0 0 3 4.26l5.77 5.76h-3.1a.75.75 0 0 0 0 1.5h4.9c.42 0 .76-.33.76-.75v-4.9a.75.75 0 0 0-.75-.76Z" />
  </symbol>
</svg>
